# This file uses centimeters as units for non-parametric coordinates.

mtllib CartelLogo.mtl
g default
v -0.062979 4.001837 -2.211641
v -0.062979 1.849682 -2.211641
v -0.062979 3.806181 -1.326984
v -0.062979 1.658784 -1.326984
v -0.062979 3.681289 -0.442328
v -0.062979 1.513165 -0.442328
v -0.062979 3.668528 0.442328
v -0.062979 1.510865 0.442328
v -0.062979 3.806181 1.326984
v -0.062979 1.640146 1.326984
v -0.062979 4.001837 2.211641
v -0.062979 1.831260 2.211641
vt 0.999914 -0.000086
vt 1.000086 0.999914
vt 0.799914 -0.000052
vt 0.800086 0.999948
vt 0.599914 -0.000017
vt 0.600086 0.999983
vt 0.399914 0.000017
vt 0.400086 1.000017
vt 0.199914 0.000052
vt 0.200086 1.000051
vt -0.000086 0.000086
vt 0.000086 1.000086
vn -1.000000 0.000000 0.000000
vn -1.000000 0.000000 0.000000
vn -1.000000 0.000000 0.000000
vn -1.000000 0.000000 0.000000
vn -1.000000 0.000000 0.000000
vn -1.000000 0.000000 0.000000
vn -1.000000 0.000000 0.000000
vn -1.000000 0.000000 0.000000
vn -1.000000 0.000000 0.000000
vn -1.000000 0.000000 0.000000
vn -1.000000 0.000000 0.000000
vn -1.000000 0.000000 0.000000
s 1
g pPlane2
usemtl initialShadingGroup
f 1/1/1 2/2/2 4/4/3 3/3/4
f 3/3/4 4/4/3 6/6/5 5/5/6
f 5/5/6 6/6/5 8/8/7 7/7/8
f 7/7/8 8/8/7 10/10/9 9/9/10
f 9/9/10 10/10/9 12/12/11 11/11/12
g default
v 0.079324 -0.024915 2.434853
v 0.030299 -0.024915 2.399235
v -0.030299 -0.024915 2.399235
v -0.079324 -0.024915 2.434853
v -0.098049 -0.024915 2.492485
v -0.079324 -0.024915 2.550117
v -0.030299 -0.024915 2.585736
v 0.030299 -0.024915 2.585736
v 0.079324 -0.024915 2.550117
v 0.098049 -0.024915 2.492485
v 0.079324 4.266117 2.434853
v 0.030299 4.266117 2.399235
v -0.030299 4.266117 2.399235
v -0.079324 4.266117 2.434853
v -0.098049 4.266117 2.492485
v -0.079324 4.266117 2.550117
v -0.030299 4.266117 2.585736
v 0.030299 4.266117 2.585736
v 0.079324 4.266117 2.550117
v 0.098049 4.266117 2.492485
v 0.000000 -0.024915 2.492485
v 0.000000 4.266117 2.492485
vt 0.626409 0.064409
vt 0.548284 0.007647
vt 0.451716 0.007647
vt 0.373591 0.064409
vt 0.343750 0.156250
vt 0.373591 0.248091
vt 0.451716 0.304853
vt 0.548284 0.304853
vt 0.626409 0.248091
vt 0.656250 0.156250
vt 0.375000 0.312500
vt 0.400000 0.312500
vt 0.425000 0.312500
vt 0.450000 0.312500
vt 0.475000 0.312500
vt 0.500000 0.312500
vt 0.525000 0.312500
vt 0.550000 0.312500
vt 0.575000 0.312500
vt 0.600000 0.312500
vt 0.625000 0.312500
vt 0.375000 0.688440
vt 0.400000 0.688440
vt 0.425000 0.688440
vt 0.450000 0.688440
vt 0.475000 0.688440
vt 0.500000 0.688440
vt 0.525000 0.688440
vt 0.550000 0.688440
vt 0.575000 0.688440
vt 0.600000 0.688440
vt 0.625000 0.688440
vt 0.626409 0.751909
vt 0.548284 0.695147
vt 0.451716 0.695147
vt 0.373591 0.751909
vt 0.343750 0.843750
vt 0.373591 0.935591
vt 0.451716 0.992353
vt 0.548284 0.992353
vt 0.626409 0.935591
vt 0.656250 0.843750
vt 0.500000 0.150000
vt 0.500000 0.837500
vn 0.587785 0.000000 -0.809017
vn 0.587785 0.000000 -0.809017
vn 0.587785 0.000000 -0.809017
vn 0.587785 0.000000 -0.809017
vn -0.000000 0.000000 -1.000000
vn -0.000000 0.000000 -1.000000
vn -0.000000 0.000000 -1.000000
vn -0.000000 0.000000 -1.000000
vn -0.587785 0.000000 -0.809017
vn -0.587785 0.000000 -0.809017
vn -0.587785 0.000000 -0.809017
vn -0.587785 0.000000 -0.809017
vn -0.951057 0.000000 -0.309017
vn -0.951057 0.000000 -0.309017
vn -0.951057 0.000000 -0.309017
vn -0.951057 0.000000 -0.309017
vn -0.951056 0.000000 0.309017
vn -0.951056 0.000000 0.309017
vn -0.951056 0.000000 0.309017
vn -0.951056 0.000000 0.309017
vn -0.587785 0.000000 0.809017
vn -0.587785 0.000000 0.809017
vn -0.587785 0.000000 0.809017
vn -0.587785 0.000000 0.809017
vn 0.000000 0.000000 1.000000
vn 0.000000 0.000000 1.000000
vn 0.000000 0.000000 1.000000
vn 0.000000 0.000000 1.000000
vn 0.587785 0.000000 0.809017
vn 0.587785 0.000000 0.809017
vn 0.587785 0.000000 0.809017
vn 0.587785 0.000000 0.809017
vn 0.951057 0.000000 0.309017
vn 0.951057 0.000000 0.309017
vn 0.951057 0.000000 0.309017
vn 0.951057 0.000000 0.309017
vn 0.951057 0.000000 -0.309017
vn 0.951057 0.000000 -0.309017
vn 0.951057 0.000000 -0.309017
vn 0.951057 0.000000 -0.309017
vn 0.000000 -1.000000 0.000001
vn 0.000000 -1.000000 0.000000
vn 0.000000 -1.000000 -0.000000
vn 0.000000 -1.000000 0.000001
vn 0.000000 -1.000000 0.000000
vn 0.000000 -1.000000 0.000000
vn 0.000000 -1.000000 -0.000001
vn 0.000000 -1.000000 -0.000001
vn 0.000000 -1.000000 0.000000
vn 0.000000 -1.000000 0.000000
vn 0.000000 -1.000000 0.000000
vn 0.000000 1.000000 0.000000
vn 0.000000 1.000000 0.000001
vn 0.000000 1.000000 0.000000
vn 0.000000 1.000000 0.000000
vn 0.000000 1.000000 -0.000001
vn 0.000000 1.000000 0.000000
vn 0.000000 1.000000 0.000000
vn 0.000000 1.000000 0.000000
vn 0.000000 1.000000 0.000000
vn 0.000000 1.000000 0.000000
vn 0.000000 1.000000 0.000000
s off
g pCylinder1
usemtl initialShadingGroup
f 13/23/13 14/24/14 24/35/15 23/34/16
f 14/24/17 15/25/18 25/36/19 24/35/20
f 15/25/21 16/26/22 26/37/23 25/36/24
f 16/26/25 17/27/26 27/38/27 26/37/28
f 17/27/29 18/28/30 28/39/31 27/38/32
f 18/28/33 19/29/34 29/40/35 28/39/36
f 19/29/37 20/30/38 30/41/39 29/40/40
f 20/30/41 21/31/42 31/42/43 30/41/44
f 21/31/45 22/32/46 32/43/47 31/42/48
f 22/32/49 13/33/50 23/44/51 32/43/52
s 1
f 14/14/53 13/13/54 33/55/55
f 15/15/56 14/14/53 33/55/55
f 16/16/57 15/15/56 33/55/55
f 17/17/58 16/16/57 33/55/55
f 18/18/59 17/17/58 33/55/55
f 19/19/60 18/18/59 33/55/55
f 20/20/61 19/19/60 33/55/55
f 21/21/62 20/20/61 33/55/55
f 22/22/63 21/21/62 33/55/55
f 13/13/54 22/22/63 33/55/55
s 2
f 23/53/64 24/52/65 34/56/66
f 24/52/65 25/51/67 34/56/66
f 25/51/67 26/50/68 34/56/66
f 26/50/68 27/49/69 34/56/66
f 27/49/69 28/48/70 34/56/66
f 28/48/70 29/47/71 34/56/66
f 29/47/71 30/46/72 34/56/66
f 30/46/72 31/45/73 34/56/66
f 31/45/73 32/54/74 34/56/66
f 32/54/74 23/53/64 34/56/66
g default
v 0.079324 -0.024915 -2.584969
v 0.030299 -0.024915 -2.620588
v -0.030299 -0.024915 -2.620588
v -0.079324 -0.024915 -2.584969
v -0.098049 -0.024915 -2.527337
v -0.079324 -0.024915 -2.469705
v -0.030299 -0.024915 -2.434087
v 0.030299 -0.024915 -2.434087
v 0.079324 -0.024915 -2.469705
v 0.098049 -0.024915 -2.527337
v 0.079324 4.266117 -2.584969
v 0.030299 4.266117 -2.620588
v -0.030299 4.266117 -2.620588
v -0.079324 4.266117 -2.584969
v -0.098049 4.266117 -2.527337
v -0.079324 4.266117 -2.469705
v -0.030299 4.266117 -2.434087
v 0.030299 4.266117 -2.434087
v 0.079324 4.266117 -2.469705
v 0.098049 4.266117 -2.527337
v 0.000000 -0.024915 -2.527337
v 0.000000 4.266117 -2.527337
vt 0.626409 0.064409
vt 0.548284 0.007647
vt 0.451716 0.007647
vt 0.373591 0.064409
vt 0.343750 0.156250
vt 0.373591 0.248091
vt 0.451716 0.304853
vt 0.548284 0.304853
vt 0.626409 0.248091
vt 0.656250 0.156250
vt 0.375000 0.312500
vt 0.400000 0.312500
vt 0.425000 0.312500
vt 0.450000 0.312500
vt 0.475000 0.312500
vt 0.500000 0.312500
vt 0.525000 0.312500
vt 0.550000 0.312500
vt 0.575000 0.312500
vt 0.600000 0.312500
vt 0.625000 0.312500
vt 0.375000 0.688440
vt 0.400000 0.688440
vt 0.425000 0.688440
vt 0.450000 0.688440
vt 0.475000 0.688440
vt 0.500000 0.688440
vt 0.525000 0.688440
vt 0.550000 0.688440
vt 0.575000 0.688440
vt 0.600000 0.688440
vt 0.625000 0.688440
vt 0.626409 0.751909
vt 0.548284 0.695147
vt 0.451716 0.695147
vt 0.373591 0.751909
vt 0.343750 0.843750
vt 0.373591 0.935591
vt 0.451716 0.992353
vt 0.548284 0.992353
vt 0.626409 0.935591
vt 0.656250 0.843750
vt 0.500000 0.150000
vt 0.500000 0.837500
vn 0.587785 0.000000 -0.809017
vn 0.587785 0.000000 -0.809017
vn 0.587785 0.000000 -0.809017
vn 0.587785 0.000000 -0.809017
vn -0.000000 0.000000 -1.000000
vn -0.000000 0.000000 -1.000000
vn -0.000000 0.000000 -1.000000
vn -0.000000 0.000000 -1.000000
vn -0.587785 0.000000 -0.809017
vn -0.587785 0.000000 -0.809017
vn -0.587785 0.000000 -0.809017
vn -0.587785 0.000000 -0.809017
vn -0.951057 0.000000 -0.309017
vn -0.951057 0.000000 -0.309017
vn -0.951057 0.000000 -0.309017
vn -0.951057 0.000000 -0.309017
vn -0.951056 0.000000 0.309017
vn -0.951056 0.000000 0.309017
vn -0.951056 0.000000 0.309017
vn -0.951056 0.000000 0.309017
vn -0.587785 0.000000 0.809017
vn -0.587785 0.000000 0.809017
vn -0.587785 0.000000 0.809017
vn -0.587785 0.000000 0.809017
vn 0.000000 0.000000 1.000000
vn 0.000000 0.000000 1.000000
vn 0.000000 0.000000 1.000000
vn 0.000000 0.000000 1.000000
vn 0.587785 0.000000 0.809017
vn 0.587785 0.000000 0.809017
vn 0.587785 0.000000 0.809017
vn 0.587785 0.000000 0.809017
vn 0.951057 0.000000 0.309017
vn 0.951057 0.000000 0.309017
vn 0.951057 0.000000 0.309017
vn 0.951057 0.000000 0.309017
vn 0.951057 0.000000 -0.309017
vn 0.951057 0.000000 -0.309017
vn 0.951057 0.000000 -0.309017
vn 0.951057 0.000000 -0.309017
vn 0.000000 -1.000000 0.000001
vn 0.000000 -1.000000 0.000000
vn 0.000000 -1.000000 -0.000000
vn 0.000000 -1.000000 0.000001
vn 0.000000 -1.000000 0.000000
vn 0.000000 -1.000000 0.000000
vn 0.000000 -1.000000 -0.000001
vn 0.000000 -1.000000 -0.000001
vn 0.000000 -1.000000 0.000000
vn 0.000000 -1.000000 0.000000
vn 0.000000 -1.000000 0.000000
vn 0.000000 1.000000 0.000000
vn 0.000000 1.000000 0.000001
vn 0.000000 1.000000 0.000000
vn 0.000000 1.000000 0.000000
vn 0.000000 1.000000 -0.000001
vn 0.000000 1.000000 0.000000
vn 0.000000 1.000000 0.000000
vn 0.000000 1.000000 0.000000
vn 0.000000 1.000000 0.000000
vn 0.000000 1.000000 0.000000
vn 0.000000 1.000000 0.000000
s off
g pCylinder2
usemtl initialShadingGroup
f 35/67/75 36/68/76 46/79/77 45/78/78
f 36/68/79 37/69/80 47/80/81 46/79/82
f 37/69/83 38/70/84 48/81/85 47/80/86
f 38/70/87 39/71/88 49/82/89 48/81/90
f 39/71/91 40/72/92 50/83/93 49/82/94
f 40/72/95 41/73/96 51/84/97 50/83/98
f 41/73/99 42/74/100 52/85/101 51/84/102
f 42/74/103 43/75/104 53/86/105 52/85/106
f 43/75/107 44/76/108 54/87/109 53/86/110
f 44/76/111 35/77/112 45/88/113 54/87/114
s 1
f 36/58/115 35/57/116 55/99/117
f 37/59/118 36/58/115 55/99/117
f 38/60/119 37/59/118 55/99/117
f 39/61/120 38/60/119 55/99/117
f 40/62/121 39/61/120 55/99/117
f 41/63/122 40/62/121 55/99/117
f 42/64/123 41/63/122 55/99/117
f 43/65/124 42/64/123 55/99/117
f 44/66/125 43/65/124 55/99/117
f 35/57/116 44/66/125 55/99/117
s 2
f 45/97/126 46/96/127 56/100/128
f 46/96/127 47/95/129 56/100/128
f 47/95/129 48/94/130 56/100/128
f 48/94/130 49/93/131 56/100/128
f 49/93/131 50/92/132 56/100/128
f 50/92/132 51/91/133 56/100/128
f 51/91/133 52/90/134 56/100/128
f 52/90/134 53/89/135 56/100/128
f 53/89/135 54/98/136 56/100/128
f 54/98/136 45/97/126 56/100/128
g default
v -0.081959 4.074548 2.531140
v 0.081959 4.074548 2.531140
v -0.081959 4.113533 2.531140
v 0.081959 4.113533 2.531140
v -0.081959 4.113533 -2.584441
v 0.081959 4.113533 -2.584441
v -0.081959 4.074548 -2.584441
v 0.081959 4.074548 -2.584441
v 0.081959 3.905215 -1.731844
v -0.081959 3.905215 -1.731844
v -0.081959 3.866231 -1.731844
v 0.081959 3.866231 -1.731844
v 0.081959 3.738885 -0.879247
v -0.081959 3.738885 -0.879247
v -0.081959 3.699901 -0.879247
v 0.081959 3.699901 -0.879247
v 0.081959 3.675698 -0.026650
v -0.081959 3.675698 -0.026650
v -0.081959 3.636713 -0.026650
v 0.081959 3.636713 -0.026650
v 0.081959 3.738885 0.825947
v -0.081959 3.738885 0.825947
v -0.081959 3.699901 0.825947
v 0.081959 3.699901 0.825947
v 0.081959 3.905215 1.678544
v -0.081959 3.905215 1.678544
v -0.081959 3.866231 1.678544
v 0.081959 3.866231 1.678544
vt 0.375000 0.000000
vt 0.625000 0.000000
vt 0.375000 0.250000
vt 0.625000 0.250000
vt 0.375000 0.500000
vt 0.625000 0.500000
vt 0.375000 0.750000
vt 0.625000 0.750000
vt 0.375000 1.000000
vt 0.625000 1.000000
vt 0.875000 0.000000
vt 0.875000 0.250000
vt 0.125000 0.000000
vt 0.125000 0.250000
vt 0.625000 0.458333
vt 0.833333 0.250000
vt 0.166667 0.250000
vt 0.375000 0.458333
vt 0.166667 0.000000
vt 0.375000 0.791667
vt 0.625000 0.791667
vt 0.833333 0.000000
vt 0.625000 0.416667
vt 0.791667 0.250000
vt 0.208333 0.250000
vt 0.375000 0.416667
vt 0.208333 0.000000
vt 0.375000 0.833333
vt 0.625000 0.833333
vt 0.791667 0.000000
vt 0.625000 0.375000
vt 0.750000 0.250000
vt 0.250000 0.250000
vt 0.375000 0.375000
vt 0.250000 0.000000
vt 0.375000 0.875000
vt 0.625000 0.875000
vt 0.750000 0.000000
vt 0.625000 0.333333
vt 0.708333 0.250000
vt 0.291667 0.250000
vt 0.375000 0.333333
vt 0.291667 0.000000
vt 0.375000 0.916667
vt 0.625000 0.916667
vt 0.708333 0.000000
vt 0.625000 0.291667
vt 0.666667 0.250000
vt 0.333333 0.250000
vt 0.375000 0.291667
vt 0.333333 0.000000
vt 0.375000 0.958333
vt 0.625000 0.958333
vt 0.666667 0.000000
vn 0.000000 0.000000 1.000000
vn 0.000000 0.000000 1.000000
vn 0.000000 0.000000 1.000000
vn 0.000000 0.000000 1.000000
vn 0.000000 0.971424 -0.237351
vn 0.000000 0.971424 -0.237351
vn 0.000000 0.976704 -0.214591
vn 0.000000 0.976704 -0.214591
vn 0.000000 0.000000 -1.000000
vn 0.000000 0.000000 -1.000000
vn 0.000000 0.000000 -1.000000
vn 0.000000 0.000000 -1.000000
vn 0.000000 -0.976704 0.214591
vn 0.000000 -0.976704 0.214591
vn 0.000000 -0.971424 0.237351
vn 0.000000 -0.971424 0.237351
vn 1.000000 0.000000 0.000000
vn 1.000000 0.000000 0.000000
vn 1.000000 0.000000 0.000000
vn 1.000000 0.000000 0.000000
vn -1.000000 0.000000 0.000000
vn -1.000000 0.000000 0.000000
vn -1.000000 0.000000 0.000000
vn -1.000000 0.000000 0.000000
vn 0.000000 0.976704 0.214591
vn 0.000000 0.976704 0.214591
vn 0.000000 0.971424 0.237351
vn 0.000000 0.971424 0.237351
vn -1.000000 0.000000 0.000000
vn -1.000000 0.000000 0.000000
vn -1.000000 0.000000 0.000000
vn -1.000000 0.000000 0.000000
vn 0.000000 -0.971424 -0.237351
vn 0.000000 -0.971424 -0.237351
vn 0.000000 -0.976704 -0.214591
vn 0.000000 -0.976704 -0.214591
vn 1.000000 0.000000 0.000000
vn 1.000000 0.000000 0.000000
vn 1.000000 0.000000 0.000000
vn 1.000000 0.000000 0.000000
vn 0.000000 0.991063 0.133396
vn 0.000000 0.991063 0.133396
vn -1.000000 0.000000 0.000000
vn -1.000000 0.000000 0.000000
vn 0.000000 -0.991063 -0.133396
vn 0.000000 -0.991063 -0.133396
vn 1.000000 0.000000 0.000000
vn 1.000000 0.000000 0.000000
vn 0.000000 1.000000 0.000000
vn 0.000000 1.000000 0.000000
vn -1.000000 0.000000 0.000000
vn -1.000000 0.000000 0.000000
vn 0.000000 -1.000000 0.000000
vn 0.000000 -1.000000 0.000000
vn 1.000000 0.000000 0.000000
vn 1.000000 0.000000 0.000000
vn 0.000000 0.991063 -0.133396
vn 0.000000 0.991063 -0.133396
vn -1.000000 0.000000 0.000000
vn -1.000000 0.000000 0.000000
vn 0.000000 -0.991063 0.133396
vn 0.000000 -0.991063 0.133396
vn 1.000000 0.000000 0.000000
vn 1.000000 0.000000 0.000000
s off
g pCube1
usemtl initialShadingGroup
f 57/101/137 58/102/138 60/104/139 59/103/140
s 1
f 59/103/141 60/104/142 81/147/143 82/150/144
s off
f 61/105/145 62/106/146 64/108/147 63/107/148
s 2
f 83/152/149 84/153/150 58/110/151 57/109/152
s 3
f 58/102/153 84/154/154 81/148/155 60/104/156
s 4
f 83/151/157 57/101/158 59/103/159 82/149/160
s 1
f 66/118/161 65/115/162 62/106/163 61/105/164
s 4
f 63/113/165 67/119/166 66/117/167 61/114/168
s 2
f 63/107/169 64/108/170 68/121/171 67/120/172
s 3
f 65/116/173 68/122/174 64/111/175 62/112/176
s 1
f 70/126/177 69/123/178 65/115/162 66/118/161
s 4
f 67/119/166 71/127/179 70/125/180 66/117/167
s 2
f 67/120/172 68/121/171 72/129/181 71/128/182
s 3
f 69/124/183 72/130/184 68/122/174 65/116/173
s 1
f 74/134/185 73/131/186 69/123/178 70/126/177
s 4
f 71/127/179 75/135/187 74/133/188 70/125/180
s 2
f 71/128/182 72/129/181 76/137/189 75/136/190
s 3
f 73/132/191 76/138/192 72/130/184 69/124/183
s 1
f 78/142/193 77/139/194 73/131/186 74/134/185
s 4
f 75/135/187 79/143/195 78/141/196 74/133/188
s 2
f 75/136/190 76/137/189 80/145/197 79/144/198
s 3
f 77/140/199 80/146/200 76/138/192 73/132/191
s 1
f 82/150/144 81/147/143 77/139/194 78/142/193
s 4
f 79/143/195 83/151/157 82/149/160 78/141/196
s 2
f 79/144/198 80/145/197 84/153/150 83/152/149
s 3
f 81/148/155 84/154/154 80/146/200 77/140/199
g default
v 0.035684 4.001837 2.211641
v 0.035684 1.849682 2.211641
v 0.035684 3.806181 1.326984
v 0.035684 1.658784 1.326984
v 0.035684 3.681289 0.442328
v 0.035684 1.513165 0.442328
v 0.035684 3.668528 -0.442328
v 0.035684 1.510865 -0.442328
v 0.035684 3.806181 -1.326984
v 0.035684 1.640146 -1.326984
v 0.035684 4.001837 -2.211641
v 0.035684 1.831260 -2.211641
vt 0.999914 -0.000086
vt 1.000086 0.999914
vt 0.799914 -0.000052
vt 0.800086 0.999948
vt 0.599914 -0.000017
vt 0.600086 0.999983
vt 0.399914 0.000017
vt 0.400086 1.000017
vt 0.199914 0.000052
vt 0.200086 1.000051
vt -0.000086 0.000086
vt 0.000086 1.000086
vn 1.000000 0.000000 0.000000
vn 1.000000 0.000000 0.000000
vn 1.000000 0.000000 0.000000
vn 1.000000 0.000000 0.000000
vn 1.000000 0.000000 0.000000
vn 1.000000 0.000000 0.000000
vn 1.000000 0.000000 0.000000
vn 1.000000 0.000000 0.000000
vn 1.000000 0.000000 0.000000
vn 1.000000 0.000000 0.000000
vn 1.000000 0.000000 0.000000
vn 1.000000 0.000000 0.000000
s 1
g pPlane1
usemtl initialShadingGroup
f 85/155/201 86/156/202 88/158/203 87/157/204
f 87/157/204 88/158/203 90/160/205 89/159/206
f 89/159/206 90/160/205 92/162/207 91/161/208
f 91/161/208 92/162/207 94/164/209 93/163/210
f 93/163/210 94/164/209 96/166/211 95/165/212
g default
v -0.081959 1.912136 2.531140
v 0.081959 1.912136 2.531140
v -0.081959 1.951121 2.531140
v 0.081959 1.951121 2.531140
v -0.081959 1.951121 -2.584441
v 0.081959 1.951121 -2.584441
v -0.081959 1.912136 -2.584441
v 0.081959 1.912136 -2.584441
v 0.081959 1.742804 -1.731844
v -0.081959 1.742804 -1.731844
v -0.081959 1.703819 -1.731844
v 0.081959 1.703819 -1.731844
v 0.081959 1.576474 -0.879247
v -0.081959 1.576474 -0.879247
v -0.081959 1.537489 -0.879247
v 0.081959 1.537489 -0.879247
v 0.081959 1.513286 -0.026650
v -0.081959 1.513286 -0.026650
v -0.081959 1.474302 -0.026650
v 0.081959 1.474302 -0.026650
v 0.081959 1.576474 0.825947
v -0.081959 1.576474 0.825947
v -0.081959 1.537489 0.825947
v 0.081959 1.537489 0.825947
v 0.081959 1.742804 1.678544
v -0.081959 1.742804 1.678544
v -0.081959 1.703819 1.678544
v 0.081959 1.703819 1.678544
vt 0.375000 0.000000
vt 0.625000 0.000000
vt 0.375000 0.250000
vt 0.625000 0.250000
vt 0.375000 0.500000
vt 0.625000 0.500000
vt 0.375000 0.750000
vt 0.625000 0.750000
vt 0.375000 1.000000
vt 0.625000 1.000000
vt 0.875000 0.000000
vt 0.875000 0.250000
vt 0.125000 0.000000
vt 0.125000 0.250000
vt 0.625000 0.458333
vt 0.833333 0.250000
vt 0.166667 0.250000
vt 0.375000 0.458333
vt 0.166667 0.000000
vt 0.375000 0.791667
vt 0.625000 0.791667
vt 0.833333 0.000000
vt 0.625000 0.416667
vt 0.791667 0.250000
vt 0.208333 0.250000
vt 0.375000 0.416667
vt 0.208333 0.000000
vt 0.375000 0.833333
vt 0.625000 0.833333
vt 0.791667 0.000000
vt 0.625000 0.375000
vt 0.750000 0.250000
vt 0.250000 0.250000
vt 0.375000 0.375000
vt 0.250000 0.000000
vt 0.375000 0.875000
vt 0.625000 0.875000
vt 0.750000 0.000000
vt 0.625000 0.333333
vt 0.708333 0.250000
vt 0.291667 0.250000
vt 0.375000 0.333333
vt 0.291667 0.000000
vt 0.375000 0.916667
vt 0.625000 0.916667
vt 0.708333 0.000000
vt 0.625000 0.291667
vt 0.666667 0.250000
vt 0.333333 0.250000
vt 0.375000 0.291667
vt 0.333333 0.000000
vt 0.375000 0.958333
vt 0.625000 0.958333
vt 0.666667 0.000000
vn 0.000000 0.000000 1.000000
vn 0.000000 0.000000 1.000000
vn 0.000000 0.000000 1.000000
vn 0.000000 0.000000 1.000000
vn 0.000000 0.971424 -0.237351
vn 0.000000 0.971424 -0.237351
vn 0.000000 0.976704 -0.214591
vn 0.000000 0.976704 -0.214591
vn 0.000000 0.000000 -1.000000
vn 0.000000 0.000000 -1.000000
vn 0.000000 0.000000 -1.000000
vn 0.000000 0.000000 -1.000000
vn 0.000000 -0.976704 0.214591
vn 0.000000 -0.976704 0.214591
vn 0.000000 -0.971424 0.237351
vn 0.000000 -0.971424 0.237351
vn 1.000000 0.000000 0.000000
vn 1.000000 0.000000 0.000000
vn 1.000000 0.000000 0.000000
vn 1.000000 0.000000 0.000000
vn -1.000000 0.000000 0.000000
vn -1.000000 0.000000 0.000000
vn -1.000000 0.000000 0.000000
vn -1.000000 0.000000 0.000000
vn 0.000000 0.976704 0.214591
vn 0.000000 0.976704 0.214591
vn 0.000000 0.971424 0.237351
vn 0.000000 0.971424 0.237351
vn -1.000000 0.000000 0.000000
vn -1.000000 0.000000 0.000000
vn -1.000000 0.000000 0.000000
vn -1.000000 0.000000 0.000000
vn 0.000000 -0.971424 -0.237351
vn 0.000000 -0.971424 -0.237351
vn 0.000000 -0.976704 -0.214591
vn 0.000000 -0.976704 -0.214591
vn 1.000000 0.000000 0.000000
vn 1.000000 0.000000 0.000000
vn 1.000000 0.000000 0.000000
vn 1.000000 0.000000 0.000000
vn 0.000000 0.991063 0.133396
vn 0.000000 0.991063 0.133396
vn -1.000000 0.000000 0.000000
vn -1.000000 0.000000 0.000000
vn 0.000000 -0.991063 -0.133396
vn 0.000000 -0.991063 -0.133396
vn 1.000000 0.000000 0.000000
vn 1.000000 0.000000 0.000000
vn 0.000000 1.000000 0.000000
vn 0.000000 1.000000 0.000000
vn -1.000000 0.000000 0.000000
vn -1.000000 0.000000 0.000000
vn 0.000000 -1.000000 0.000000
vn 0.000000 -1.000000 0.000000
vn 1.000000 0.000000 0.000000
vn 1.000000 0.000000 0.000000
vn 0.000000 0.991063 -0.133396
vn 0.000000 0.991063 -0.133396
vn -1.000000 0.000000 0.000000
vn -1.000000 0.000000 0.000000
vn 0.000000 -0.991063 0.133396
vn 0.000000 -0.991063 0.133396
vn 1.000000 0.000000 0.000000
vn 1.000000 0.000000 0.000000
s off
g pCube2
usemtl initialShadingGroup
f 97/167/213 98/168/214 100/170/215 99/169/216
s 1
f 99/169/217 100/170/218 121/213/219 122/216/220
s off
f 101/171/221 102/172/222 104/174/223 103/173/224
s 2
f 123/218/225 124/219/226 98/176/227 97/175/228
s 3
f 98/168/229 124/220/230 121/214/231 100/170/232
s 4
f 123/217/233 97/167/234 99/169/235 122/215/236
s 1
f 106/184/237 105/181/238 102/172/239 101/171/240
s 4
f 103/179/241 107/185/242 106/183/243 101/180/244
s 2
f 103/173/245 104/174/246 108/187/247 107/186/248
s 3
f 105/182/249 108/188/250 104/177/251 102/178/252
s 1
f 110/192/253 109/189/254 105/181/238 106/184/237
s 4
f 107/185/242 111/193/255 110/191/256 106/183/243
s 2
f 107/186/248 108/187/247 112/195/257 111/194/258
s 3
f 109/190/259 112/196/260 108/188/250 105/182/249
s 1
f 114/200/261 113/197/262 109/189/254 110/192/253
s 4
f 111/193/255 115/201/263 114/199/264 110/191/256
s 2
f 111/194/258 112/195/257 116/203/265 115/202/266
s 3
f 113/198/267 116/204/268 112/196/260 109/190/259
s 1
f 118/208/269 117/205/270 113/197/262 114/200/261
s 4
f 115/201/263 119/209/271 118/207/272 114/199/264
s 2
f 115/202/266 116/203/265 120/211/273 119/210/274
s 3
f 117/206/275 120/212/276 116/204/268 113/198/267
s 1
f 122/216/220 121/213/219 117/205/270 118/208/269
s 4
f 119/209/271 123/217/233 122/215/236 118/207/272
s 2
f 119/210/274 120/211/273 124/219/226 123/218/225
s 3
f 121/214/231 124/220/230 120/212/276 117/206/275
